<svg xmlns:rdf="http://www.w3.org/1999/02/22-rdf-syntax-ns#" xmlns="http://www.w3.org/2000/svg" xmlns:cc="http://creativecommons.org/ns#" xmlns:dc="http://purl.org/dc/elements/1.1/" viewBox="0 0 100 100" version="1.1" x="0px" y="0px"><path d="m50.04 5.0001c-16.772 0.00006-30.369 3.2036-30.371 7.1556l-0.08111 2.0458c0.000524 1.0534 0.99104 2.0514 2.7259 2.9519l0.01355 0.48104c0.14528 5.7931 0.49756 13.236 1.4006 19.931 0.90304 6.6951 2.2212 12.608 4.8838 15.64l7.4628 8.5002 1.0645 21.942c0.53365 2.324 3.5981 4.3657 5.1581 4.7814l0.1758 0.11977 0.0059 0.002v1.9435c-0.77479 0.19127-1.2348 0.49893-1.2364 0.82683 0.000534 0.005 0.00095 0.0103 0.002 0.0154h-0.002v2.6119h0.004c-0.002 0.0103-0.003 0.0206-0.004 0.0309 0 0.56335 1.3285 1.02 2.9673 1.02s2.9673-0.4567 2.9673-1.02c-0.000831-0.0103-0.002-0.0206-0.004-0.0309h0.004v-2.6119h-0.002c0.000752-0.005 0.000939-0.0103 0.002-0.0154-0.000287-0.3096-0.40965-0.60241-1.1128-0.79592v-1.3967c2.6791 0.37019 5.4321 0.53544 8.2838 0.15069v1.1842c-0.77479 0.19127-1.2348 0.49893-1.2364 0.82684 0.000534 0.005 0.000949 0.0103 0.002 0.0154h-0.002v2.6119h0.004c-0.002 0.0103-0.003 0.0206-0.004 0.031 0 0.56334 1.3285 1.02 2.9673 1.02s2.9673-0.45668 2.9673-1.02c-0.000831-0.0103-0.002-0.0206-0.004-0.031h0.004v-2.6119h-0.002c0.000752-0.005 0.00094-0.0103 0.002-0.0154-0.000287-0.30961-0.40965-0.60242-1.1128-0.79593v-2.1077c2.7789-0.84363 4.4854-2.9628 5.5696-5.2856l0.23568-20.681c3.1251-2.8253 4.8252-5.6207 7.0996-8.2626 3.5396-4.1114 5.1028-10.372 5.8903-16.971 0.78744-6.5991 0.76163-13.57 0.86161-19.079l0.01741-0.95821c1.7321-0.89992 2.7214-1.8956 2.722-2.948l0.08-2.044c-0.002-3.9523-13.599-7.1558-30.371-7.1559zm0.04639 1.3117a27.427 5.9639 0 0 1 27.428 5.9632 27.427 5.9639 0 0 1 -27.427 5.964 27.427 5.9639 0 0 1 -27.427 -5.964 27.427 5.9639 0 0 1 27.427 -5.9632zm-25.713 11.696 1.7792 0.62786c2.9437 0.87619 6.7509 1.5801 11.099 2.0555 0.03788 3.424 0.42298 9.357 2.0864 14.835 0.92322 3.0402 2.232 5.9005 4.1226 8.0153 1.8905 2.1148 4.3988 3.4706 7.5633 3.4059 3.1329-0.0641 5.5486-1.5754 7.3198-3.8193s2.9393-5.2118 3.7324-8.3148c1.3906-5.4409 1.6064-11.147 1.6498-14.246 3.2017-0.38762 6.0941-0.89921 8.5157-1.5165l3.3286-1.0181c-0.08506 5.3747-0.10423 12.845-0.82877 18.917-0.76709 6.4285-2.3576 12.347-5.4189 15.903-2.8528 3.2653-4.9359 6.3865-7.5768 8.7166l-0.23762 20.874c-0.80217 2.2008-2.2793 3.9526-4.8219 4.3332-2.2126 0.33121-10.73 0.80082-13.405-0.12943-1.9111-0.66468-4.2755-2.5165-4.1767-3.8096l-1.062-21.925-7.925-9.027c-1.965-2.239-3.519-8.02-4.404-14.588-0.838-6.212-1.181-13.686-1.339-19.29zm38.348 2.6795c-0.04214 3.0493-0.24842 8.5788-1.6035 13.88-0.77251 3.0225-1.9127 5.8725-3.5508 7.9477s-3.7328 3.3847-6.5645 3.4426c-2.8772 0.0589-5.059-1.1235-6.804-3.0755-1.744-1.954-3.016-4.691-3.913-7.646-1.615-5.319-1.984-11.104-2.021-14.445 3.6037 0.35696 7.5392 0.56408 11.696 0.5641 4.5671-0.00003 8.8826-0.2431 12.762-0.67035z"/></svg>