<svg xmlns:rdf="http://www.w3.org/1999/02/22-rdf-syntax-ns#" xmlns="http://www.w3.org/2000/svg" xmlns:cc="http://creativecommons.org/ns#" xmlns:dc="http://purl.org/dc/elements/1.1/" viewBox="0 0 100 100" version="1.1" x="0px" y="0px"><path stroke-linejoin="round" d="m23.41 9.3691c-2.854 0.0495-5.154 0.8529-6.691 2.5099-0.474 0.51-0.853 1.093-1.158 1.73l-0.014-0.005c-0.024 0.062-0.041 0.123-0.065 0.185-0.185 0.416-0.34 0.855-0.459 1.318-6.456 18.2-2.739 36.306 7.959 48.788l-17.332 18.386-0.0094 0.016c-0.2391 0.388-0.6564 0.692-0.6406 1.717v0.037l0.0195 0.033c0.2805 0.577 0.9158 1.052 1.8184 1.469s2.0778 0.775 3.4671 1.074c2.778 0.598 6.404 0.964 10.336 1.096 7.862 0.262 16.942-0.42 22.884-2.151l0.065-0.021 1.4-2.475c2.74 1.668 5.587 3.133 8.526 4.319 11.418 4.608 24.246 4.962 37.572-3.327 0.304-0.16 0.592-0.338 0.865-0.535 0.091-0.059 0.182-0.108 0.274-0.168l-0.012-0.015c0.268-0.213 0.52-0.438 0.754-0.69 1.757-1.893 2.331-4.699 1.888-8.113-0.442-3.414-1.896-7.45-4.218-11.863-4.644-8.827-12.764-19.155-23.27-28.907s-21.409-17.083-30.557-21.058c-4.573-1.988-8.706-3.1372-12.144-3.3245-0.43-0.0234-0.85-0.0324-1.258-0.0254zm0.006 0.3379c0.399-0.0067 0.808 0.0005 1.23 0.0235 3.378 0.1839 7.485 1.3215 12.034 3.2985 9.098 3.954 19.978 11.264 30.461 20.994 10.482 9.731 18.582 20.038 23.201 28.817 2.309 4.39 3.745 8.397 4.179 11.752 0.435 3.354-0.127 6.039-1.796 7.838-0.287 0.308-0.613 0.574-0.955 0.822-0.285 0.185-0.57 0.35-0.854 0.527-1.555 0.815-3.532 1.157-5.877 1.03-3.378-0.184-7.482-1.318-12.031-3.295-9.098-3.954-19.977-11.268-30.459-20.998-10.483-9.731-18.582-20.036-23.201-28.815-2.31-4.389-3.749-8.399-4.184-11.754-0.229-1.767-0.173-3.344 0.168-4.709 0.162-0.457 0.306-0.912 0.48-1.369 0.3-0.653 0.676-1.248 1.153-1.762 1.461-1.573 3.661-2.3528 6.451-2.4zm1.441 1.354c-2.744 0.047-4.96 0.82-6.439 2.414-1.691 1.821-2.238 4.52-1.813 7.802 0.426 3.283 1.821 7.164 4.053 11.407 4.464 8.484 12.27 18.408 22.367 27.781 10.098 9.373 20.575 16.419 29.368 20.24 4.396 1.91 8.372 3.017 11.677 3.197 3.306 0.18 5.954-0.571 7.645-2.392 1.691-1.822 2.239-4.516 1.814-7.799s-1.821-7.166-4.052-11.408c-4.464-8.485-12.27-18.41-22.368-27.783-10.097-9.374-20.578-16.418-29.371-20.239-4.396-1.91-8.368-3.017-11.674-3.197-0.413-0.023-0.815-0.03-1.207-0.023zm0.008 0.335c0.383-0.006 0.776 0.002 1.182 0.024 3.245 0.177 7.189 1.268 11.56 3.168 8.744 3.799 19.2 10.826 29.274 20.178 10.074 9.351 17.86 19.256 22.299 27.693 2.219 4.218 3.602 8.07 4.019 11.293 0.418 3.223-0.129 5.802-1.732 7.529s-4.134 2.464-7.379 2.287c-3.245-0.176-7.189-1.27-11.561-3.17-8.743-3.799-19.199-10.828-29.273-20.179-10.074-9.352-17.858-19.257-22.297-27.694-2.219-4.218-3.604-8.066-4.021-11.289-0.418-3.223 0.125-5.806 1.728-7.533 1.403-1.511 3.52-2.261 6.201-2.307zm-10.638 7.237c-0.319 1.115-0.601 2.227-0.844 3.338 0.243-1.111 0.525-2.223 0.844-3.338zm19.835 3.529c-1.908 0.034-3.449 0.572-4.478 1.68-1.176 1.266-1.557 3.143-1.262 5.426 0.296 2.282 1.269 4.978 2.821 7.927 3.103 5.899 8.529 12.8 15.55 19.317s14.307 11.417 20.42 14.074c3.057 1.328 5.821 2.095 8.119 2.221 2.299 0.125 4.139-0.394 5.315-1.661 1.175-1.266 1.559-3.143 1.264-5.425-0.296-2.283-1.267-4.982-2.819-7.932-3.103-5.899-8.53-12.797-15.551-19.314-7.02-6.518-14.306-11.418-20.42-14.075-3.056-1.328-5.821-2.097-8.119-2.222-0.287-0.016-0.567-0.021-0.84-0.016zm0.004 0.233c0.267-0.005 0.543 0.002 0.825 0.017 2.256 0.123 4.999 0.882 8.039 2.203 6.079 2.642 13.347 7.527 20.351 14.03 7.005 6.502 12.418 13.389 15.504 19.255 1.543 2.934 2.503 5.611 2.793 7.852s-0.087 4.034-1.201 5.234c-1.115 1.201-2.877 1.711-5.133 1.588s-4.995-0.88-8.035-2.201c-6.079-2.642-13.351-7.529-20.355-14.031-7.005-6.502-12.418-13.388-15.504-19.254-1.544-2.933-2.503-5.611-2.793-7.852-0.291-2.241 0.086-4.037 1.201-5.238 0.975-1.051 2.444-1.572 4.308-1.603zm-18.718 0.271c0.352 1.391 0.841 2.862 1.461 4.398-0.62-1.536-1.109-3.007-1.461-4.398zm-2.303 0.969c-0.194 1.04-0.352 2.075-0.483 3.107 0.131-1.032 0.289-2.068 0.483-3.107zm-0.527 3.465c-0.256 2.142-0.376 4.268-0.364 6.363-0.012-2.096 0.108-4.22 0.364-6.363zm4.953 1.521c0.47 1.053 0.995 2.133 1.576 3.236-0.581-1.103-1.106-2.183-1.576-3.236zm24.996 4.352c-1.435-0.016-2.601 0.363-3.369 1.185-0.768 0.823-1.058 2.004-0.936 3.426s0.655 3.087 1.545 4.893c1.78 3.611 4.986 7.789 9.201 11.679 4.215 3.891 8.641 6.759 12.395 8.256 1.877 0.748 3.586 1.155 5.021 1.17s2.599-0.363 3.367-1.186c0.768-0.822 1.062-2.004 0.94-3.425-0.122-1.422-0.657-3.089-1.547-4.895-1.78-3.611-4.988-7.785-9.203-11.676-4.215-3.89-8.641-6.761-12.395-8.257-1.877-0.749-3.584-1.155-5.019-1.17zm-0.002 0.142c1.409 0.015 3.103 0.417 4.969 1.16 3.731 1.488 8.145 4.35 12.349 8.231 4.204 3.88 7.401 8.045 9.17 11.635 0.885 1.794 1.414 3.445 1.533 4.841 0.12 1.396-0.167 2.531-0.9 3.317-0.734 0.786-1.853 1.154-3.262 1.139-1.409-0.016-3.103-0.413-4.969-1.157-3.731-1.487-8.143-4.352-12.347-8.232-4.204-3.881-7.403-8.042-9.172-11.631-0.885-1.795-1.414-3.448-1.533-4.844-0.12-1.396 0.169-2.53 0.902-3.316 0.734-0.786 1.851-1.158 3.26-1.143zm-7.904 42.297c1.383 1.184 2.795 2.345 4.257 3.449-1.463-1.104-2.873-2.265-4.257-3.449zm-29.153 8.018c-0.0319 0.144-0.0516 0.317-0.0527 0.533 0.058 0.112 0.1357 0.225 0.2324 0.336-0.0972-0.111-0.1742-0.223-0.2324-0.336 0.0011-0.217 0.0204-0.388 0.0527-0.533zm81.873 1.683c-0.715 0.064-1.47 0.075-2.263 0.032 0.793 0.043 1.549 0.032 2.263-0.032zm-66.631 2.274c1.953 0.065 3.983 0.072 6.02 0.017-2.037 0.055-4.067 0.048-6.02-0.017z" stroke-opacity="1.0" stroke="#000" stroke-linecap="round" stroke-width=".25"/></svg>