<svg xmlns:rdf="http://www.w3.org/1999/02/22-rdf-syntax-ns#" xmlns="http://www.w3.org/2000/svg" xmlns:cc="http://creativecommons.org/ns#" xmlns:dc="http://purl.org/dc/elements/1.1/" viewBox="0 0 100 100" version="1.1" x="0px" y="0px"><path style="color-rendering:auto;text-decoration-color:#000000;color:#000000;isolation:auto;mix-blend-mode:normal;shape-rendering:auto;solid-color:#000000;block-progression:tb;text-decoration-line:none;text-decoration-style:solid;image-rendering:auto;white-space:normal;text-indent:0;text-transform:none;" d="m50.525 5.0038c-6.9-0.0672-13.925 0.7-19.476 2.4789-2.3854 0.76453-4.2715 2.1558-5.3876 4.0416-1.116 1.8859-1.4423 4.2503-0.79114 6.8761 0.9671 3.8996 2.3419 7.2827 4.0045 10.369 0.28264 0.52461 0.58849 1.0079 0.95718 1.3967 0.36869 0.38879 0.81936 0.69406 1.3615 0.76184 12.003 1.5004 26.433 1.2608 37.672-0.19925 0.72595-0.09432 1.4985-0.70238 2.225-2.1742 1.7228-3.4905 3.1311-7.2252 4.1979-11.65 0.919-3.813-1.918-8.1066-6.032-9.3744-5.054-1.5582-11.831-2.4606-18.731-2.5278zm-0.0078 1.0627c6.8211 0.066185 13.523 0.94168 18.435 2.4555 3.6018 1.1102 6.087 4.9956 5.329 8.1399-1.0492 4.3522-2.4275 8.0047-4.1198 11.433-0.64792 1.3128-1.194 1.5753-1.428 1.6057-11.141 1.4473-25.523 1.6833-37.41 0.1973-0.231-0.029-0.472-0.164-0.739-0.445-0.266-0.281-0.538-0.696-0.797-1.176-1.625-3.018-2.963-6.314-3.908-10.127-0.598-2.409-0.294-4.46 0.676-6.098 0.969-1.638 2.621-2.8789 4.811-3.5808 5.388-1.7271 12.33-2.4709 19.151-2.4047z"/><path d="m69.782 31.071c-15.172 1.8951-27.007 2.0054-39.712 0.15577 6.055 19.66 5.9792 28.587 6.1191 37.895 0.22407 0.21316 0.22675 0.40194 0.76204 0.57676 0.05771 0.34504 0.15632 0.83586 0.35153 1.1346 0.13224 0.20236 0.40893 0.39622 0.61044 0.52834 0.05644 0.3687 0.14711 0.84532 0.31574 1.1409 0.17881 0.3134 0.75989 0.70937 0.75989 0.70937 6.9921 1.0969 14.424 0.73606 21.416 0.10946 0 0 0.71304-0.4949 0.95144-0.87145 0.15844-0.25025 0.30131-0.6846 0.40415-1.0567 0.24993-0.1699 0.55186-0.39243 0.71148-0.61254 0.1879-0.25912 0.34325-0.69091 0.45678-1.063 0.35136-0.13568 0.63594-0.28104 0.78725-0.43994-0.43785-12.654 2.8728-25.687 6.0665-38.207z"/><path d="m39.142 72.857v3.8879c7.285 0.04553 14.691 0.46277 21.297-1.6082l-0.05404-2.2291-21.243-0.05052zm21.137 3.8879c-6.5172 1.8172-13.555 1.6494-20.337 0.87987l-1.3316 1.505c7.952 0.54318 16.653 1.2064 22.2-1.8671l-0.53177-0.51782zm-0.07998 3.189c-6.5172 1.8172-13.555 1.6515-20.337 0.88198l-1.3316 1.5029c7.952 0.54318 16.653 1.2064 22.2-1.8671l-0.53177-0.51782zm0.10592 3.008c-6.5172 1.8172-13.555 1.6494-20.337 0.87987l-1.3316 1.5029c7.952 0.54318 16.653 1.2085 22.2-1.865l-0.53177-0.51782zm0.05404 2.9533c-6.5172 1.8172-13.555 1.6515-20.337 0.88198l-1.3316 1.5029c7.952 0.54318 16.653 1.2085 22.2-1.865l-0.53177-0.51992zm-3.9126 5.675c-3.9969 0.33151-8.2001 0.52956-13.043 0.31153 0.52667 0.43816 0.98953 0.75495 2.3411 2.7996 3.4097 0.55538 5.9834 0.29783 8.411-0.10314 0.05352-0.78924 1.464-1.9676 2.2914-3.008z"/></svg>